<?xml version="1.0" encoding="utf-8"?>
<!-- Generated by IcoMoon.io -->
<!DOCTYPE svg PUBLIC "-//W3C//DTD SVG 1.1//EN" "http://www.w3.org/Graphics/SVG/1.1/DTD/svg11.dtd">
<svg version="1.1" xmlns="http://www.w3.org/2000/svg" xmlns:xlink="http://www.w3.org/1999/xlink" width="512" height="512" viewBox="0 0 512 512">
<g>
</g>
	<path d="M253.338 501.883l-13.456-78.080-71.404 31.314 71.404-59.699v-120.678l-99.369 63.877-15.493 92.283-12.923-78.080-71.322 24.361 64.236-45.66-64.256-52.664 85.555 38.462 106.445-56.781-106.445-63.846-85.484 38.594 64.184-52.828-63.867-46.142 70.953 24.873 13.322-78.090 15.094 92.272 99.369 63.908v-120.678l-70.841-60.569 70.841 32.164 7.998-77.476 20.377 77.476 71.045-31.877-71.045 60.283v120.678l99.379-63.908 14.019-92.272 14.387 78.090 70.031-26.286 0.727 1.126-63.652 46.428 64.686 52.019-85.986-37.785-106.486 63.846 106.486 56.781 85.289-38.871-63.99 53.074 64.829 44.697-71.936-23.399-14.019 78.080-14.387-92.283-99.379-63.877v120.678l70.8 60.56-70.799-32.174z" fill="#000000" />
</svg>
